<svg width="100" height="20" viewBox="0 0 100 20" fill="none" xmlns="http://www.w3.org/2000/svg">
<g clip-path="url(#clip0_518:1421)">
<path d="M17.2872 15.9005H12.747V4.54027H12.709L9.80243 15.9005H6.70593L3.70441 4.54027H3.66641V15.9005H0V0H6.38298L8.66261 8.43465H8.70061L10.8663 0H17.2872V15.9005Z" fill="#fff"/>
<path d="M30.6043 11.9296C29.8824 14.7982 27.3368 16.1279 24.5252 16.1279C22.7775 16.1279 21.0868 15.748 19.757 14.5702C18.4842 13.4304 17.8193 11.8156 17.8383 10.1249C17.8193 8.52916 18.4462 6.78144 19.548 5.66062C20.7448 4.40682 22.5686 3.83691 24.2593 3.83691C28.1917 3.83691 30.6043 6.38251 30.6043 10.2769V10.9038H22.6635C22.6635 12.1766 23.0815 13.1074 24.4683 13.1074C25.5131 13.1074 26.083 12.6895 26.273 11.6637L30.6043 11.9296ZM25.969 8.56716C25.969 7.40834 25.5891 6.53448 24.2973 6.53448C23.1005 6.53448 22.6445 7.48433 22.6445 8.56716H25.969Z" fill="#fff"/>
<path d="M35.7335 15.9005H31.1553V0H35.7525V15.9005H35.7335Z" fill="#fff"/>
<path d="M41.109 15.9005H36.5117V0H41.109V15.9005Z" fill="#fff"/>
<path d="M54.4265 11.9296C53.7046 14.7982 51.1591 16.1279 48.3475 16.1279C46.5998 16.1279 44.9091 15.748 43.5793 14.5702C42.3065 13.4304 41.6416 11.8156 41.6606 10.1249C41.6416 8.52916 42.2685 6.78144 43.3703 5.66062C44.5671 4.40682 46.3908 3.83691 48.0815 3.83691C52.0139 3.83691 54.4265 6.38251 54.4265 10.2769V10.9038H46.4858C46.4858 12.1766 46.9037 13.1074 48.2905 13.1074C49.3353 13.1074 49.9053 12.6895 50.0952 11.6637L54.4265 11.9296ZM49.7913 8.56716C49.7913 7.40834 49.4113 6.53448 48.1195 6.53448C46.9227 6.53448 46.4668 7.48433 46.4668 8.56716H49.7913Z" fill="#fff"/>
<path d="M55.0346 4.04632H59.3659V5.71806H59.4039C59.9548 4.36927 61.3226 3.81836 62.7664 3.81836C63.8872 3.81836 65.16 4.14131 65.8439 5.05316C66.5848 6.02201 66.5848 7.37079 66.5848 8.60559V15.9004H61.9875V8.71957C61.9875 7.99769 61.9875 7.00985 60.9997 7.00985C59.7269 7.00985 59.6129 8.09267 59.6129 9.08052V15.9194H55.0156V4.04632H55.0346Z" fill="#fff"/>
<path d="M69.3392 10.258C68.1044 9.7451 67.4206 8.89024 67.4206 7.52246C67.4206 4.46395 70.802 3.81805 73.2146 3.81805C73.9555 3.81805 74.6964 3.85605 75.4183 4.04602C75.6652 2.33629 76.5391 1.27246 78.3628 1.27246C78.9137 1.27246 79.3886 1.29146 80.0155 1.36745L79.9016 4.53994C79.3886 4.46395 79.1417 4.50194 78.7617 4.50194C78.3438 4.50194 77.6979 4.52094 77.4699 4.93887C78.2868 5.58477 78.7997 6.55362 78.7997 7.59845C78.7997 10.562 75.7602 11.2079 73.3856 11.2079C72.9867 11.2079 72.7207 11.1699 72.3218 11.1699C71.5999 11.1699 71.2009 11.3408 71.2009 11.7398C71.2009 12.1957 71.5999 12.2527 72.4737 12.2907L75.7222 12.4237C76.7481 12.4617 77.8309 12.6136 78.6668 13.2405C79.5786 13.9054 80.0345 15.0643 80.0345 16.1851C80.0345 17.8758 78.8947 18.9396 77.394 19.4526C76.1212 19.8895 74.2975 19.9655 72.8917 19.9655C70.916 19.9655 66.4707 19.8325 66.4707 17.0399C66.4707 15.9001 67.1356 15.1212 68.1804 14.7413C67.5345 14.2474 67.0976 13.6965 67.0976 12.8606C67.0786 11.5118 68.1804 10.714 69.3392 10.258ZM71.2199 17.3629C71.9608 17.5529 72.7587 17.5719 73.5186 17.5719C74.2215 17.5719 75.9312 17.6858 75.9312 16.641C75.9312 15.8621 75.1523 15.9001 74.5634 15.8811C73.5186 15.8431 72.4927 15.7481 71.4669 15.7481C70.935 15.7481 70.3081 15.7861 70.3081 16.489C70.2891 17.0399 70.726 17.2489 71.2199 17.3629ZM74.5634 7.59845C74.5634 6.68659 74.1075 6.11669 73.1576 6.11669C72.2838 6.11669 71.7899 6.72459 71.7899 7.57945C71.7899 8.5293 72.3028 9.02322 73.2526 9.02322C74.0885 9.02322 74.5634 8.41532 74.5634 7.59845Z" fill="#fff"/>
<path d="M91.7742 11.9296C91.0523 14.7982 88.5067 16.1279 85.6952 16.1279C83.9475 16.1279 82.2567 15.748 80.9269 14.5702C79.6541 13.4304 78.9892 11.8156 79.0082 10.1249C78.9892 8.52916 79.6161 6.78144 80.718 5.66062C81.9148 4.40682 83.7385 3.83691 85.4292 3.83691C89.3616 3.83691 91.7742 6.38251 91.7742 10.2769V10.9038H83.8335C83.8335 12.1766 84.2514 13.1074 85.6382 13.1074C86.683 13.1074 87.2529 12.6895 87.4429 11.6637L91.7742 11.9296ZM87.139 8.56716C87.139 7.40834 86.759 6.53448 85.4672 6.53448C84.2704 6.53448 83.8145 7.48433 83.8145 8.56716H87.139Z" fill="#fff"/>
<path d="M96.2956 6.49717C96.6945 4.84444 97.5494 3.68562 99.3731 3.8376L100 3.87559V8.01693C99.715 7.94094 99.4301 7.90294 99.1261 7.90294C98.3852 7.90294 97.6253 8.03592 97.2454 8.71981C96.9225 9.28972 96.9225 10.0686 96.9225 10.7525V15.9007H92.3252V4.04656H96.2386V6.47817H96.2956V6.49717Z" fill="#fff"/>
</g>
<defs>
<clipPath id="clip0_518:1421">
<rect width="100" height="19.9848" fill="white"/>
</clipPath>
</defs>
</svg>
